<svg width="21" height="21" viewBox="0 0 21 21" fill="none" xmlns="http://www.w3.org/2000/svg">
<path d="M10.44 10.65C7.9 10.65 6.44 9.18999 6.44 6.64999C6.44 4.43999 8.23 2.64999 10.44 2.64999C12.65 2.64999 14.44 4.43999 14.44 6.64999C14.44 9.14999 12.94 10.65 10.44 10.65ZM10.44 4.64999C9.34 4.64999 8.44 5.54999 8.44 6.64999C8.44 8.06999 9.02 8.64999 10.44 8.64999C11.84 8.64999 12.44 8.04999 12.44 6.64999C12.44 5.54999 11.54 4.64999 10.44 4.64999Z" fill="#1D2128"/>
<path d="M17.44 18.65H3.44V16.65C3.44 13.89 5.68 11.65 8.44 11.65H12.44C15.2 11.65 17.44 13.89 17.44 16.65V18.65ZM5.44 16.65H15.44C15.44 15 14.09 13.65 12.44 13.65H8.44C6.79 13.65 5.44 15 5.44 16.65Z" fill="#1D2128"/>
</svg>
