<svg width="29" height="29" viewBox="0 0 29 29" fill="none" xmlns="http://www.w3.org/2000/svg">
<g clip-path="url(#clip0_1_412)">
<path d="M26.3001 14.7C26.3001 21.0508 21.1507 26.2001 14.8 26.2001C8.44924 26.2001 3.29987 21.0508 3.29987 14.7C3.29987 8.34926 8.44924 3.19989 14.8 3.19989C21.1507 3.19989 26.3001 8.34926 26.3001 14.7Z" stroke="black" stroke-width="0.900025" stroke-miterlimit="10"/>
<path d="M3.04962 2.94965L6.50325 6.40327" stroke="black" stroke-width="0.900025" stroke-miterlimit="10"/>
<path d="M1.54987 7.95026H5.48824" stroke="black" stroke-width="0.900025" stroke-miterlimit="10"/>
<path d="M8.05023 1.44989V5.38914" stroke="black" stroke-width="0.900025" stroke-miterlimit="10"/>
<path d="M26.5504 2.94965L23.0967 6.40327" stroke="black" stroke-width="0.900025" stroke-miterlimit="10"/>
<path d="M28.0501 7.95026H24.1108" stroke="black" stroke-width="0.900025" stroke-miterlimit="10"/>
<path d="M21.5497 1.44989V5.38914" stroke="black" stroke-width="0.900025" stroke-miterlimit="10"/>
<path d="M14.7702 11.4993C14.2181 11.4826 13.7841 11.0215 13.8016 10.4694C13.8173 9.91726 14.2785 9.48326 14.8306 9.50076C15.3827 9.51826 15.8167 9.97851 15.801 10.5306C15.7843 11.0828 15.3232 11.5168 14.7711 11.4993H14.7702Z" fill="#7C818B"/>
<path d="M11.3 3.45013V10.4501C11.3 12.383 12.8671 13.9501 14.8 13.9501C16.7329 13.9501 18.3 12.383 18.3 10.4501V3.45013" stroke="black" stroke-width="0.900025" stroke-miterlimit="10"/>
<path d="M18.3 6.9519C21.2479 8.28628 23.2997 11.2543 23.2997 14.7C23.2997 19.3953 19.4935 23.1998 14.8 23.1998C10.1047 23.1998 6.30023 19.3944 6.30023 14.7C6.30023 11.2543 8.35123 8.28628 11.3 6.9519" stroke="black" stroke-width="0.900025" stroke-miterlimit="10"/>
</g>
<defs>
<clipPath id="clip0_1_412">
<rect width="28" height="28" fill="white" transform="translate(0.799988 0.700012)"/>
</clipPath>
</defs>
</svg>
