<svg viewBox="0 0 32 32">
<path d="M25.6 8h-5.408c-0.608 0-1.168-0.336-1.424-0.88l-0.72-1.424c-0.272-0.56-0.832-0.896-1.44-0.896h-6.016c-0.608 0-1.168 0.336-1.44 0.88l-0.704 1.44c-0.272 0.544-0.832 0.88-1.44 0.88h-0.608c-1.76 0-3.2 1.44-3.2 3.2v12.8c0 1.76 1.44 3.2 3.2 3.2h19.2c1.76 0 3.2-1.44 3.2-3.2v-12.8c0-1.76-1.44-3.2-3.2-3.2zM25.6 24h-19.2v-12.8h0.608c0.064 0 0.128-0.016 0.192-0.016v0.016h12.8v-0.016c0.064 0 0.128 0.016 0.192 0.016h5.408v12.8z"></path>
<path d="M13.6 12.8c-2.656 0-4.8 2.144-4.8 4.8s2.144 4.8 4.8 4.8 4.8-2.144 4.8-4.8-2.144-4.8-4.8-4.8zM13.6 19.2c-0.88 0-1.6-0.72-1.6-1.6s0.72-1.6 1.6-1.6 1.6 0.72 1.6 1.6-0.72 1.6-1.6 1.6z"></path>
<path d="M24.4 14.4c0 1.105-0.895 2-2 2s-2-0.895-2-2c0-1.105 0.895-2 2-2s2 0.895 2 2z"></path>
</svg>