<svg width="29" height="29" viewBox="0 0 29 29" fill="none" xmlns="http://www.w3.org/2000/svg">
<path d="M27.3002 14.4004V21.4004C27.3002 22.5055 26.4051 23.4006 25.3 23.4006H4.29999C3.19487 23.4006 2.29974 22.5055 2.29974 21.4004V8.40052C2.29974 7.29539 3.19487 6.40027 4.29999 6.40027H19.3001" stroke="black" stroke-width="0.900025" stroke-miterlimit="10"/>
<path d="M10.2999 20.4003H6.30023C5.74811 20.4003 5.30011 19.9523 5.30011 19.4001V14.4004C5.30011 13.8483 5.74811 13.4003 6.30023 13.4003H10.2999C10.852 13.4003 11.3 13.8483 11.3 14.4004V19.4001C11.3 19.9523 10.852 20.4003 10.2999 20.4003Z" stroke="black" stroke-width="0.900025" stroke-miterlimit="10"/>
<path d="M5.79975 10.9004C5.24762 10.9004 4.79962 10.4524 4.79962 9.90027C4.79962 9.34815 5.24762 8.90015 5.79975 8.90015C6.35187 8.90015 6.79987 9.34815 6.79987 9.90027C6.79987 10.4524 6.35187 10.9004 5.79975 10.9004Z" fill="#7C818B"/>
<path d="M9.80024 6.89991H7.79999C7.24787 6.89991 6.79987 6.45191 6.79987 5.89978C6.79987 5.34766 7.24787 4.89966 7.79999 4.89966H9.80024C10.3524 4.89966 10.8004 5.34766 10.8004 5.89978C10.8004 6.45191 10.3524 6.89991 9.80024 6.89991Z" fill="#7C818B"/>
<path d="M24.2999 17.3999H19.3001C17.6429 17.3999 16.2997 16.0568 16.2997 14.3995V9.39979C16.2997 7.74254 17.6429 6.39941 19.3001 6.39941H24.2999C25.9571 6.39941 27.3002 7.74254 27.3002 9.39979V14.3995C27.3002 16.0568 25.9571 17.3999 24.2999 17.3999Z" stroke="black" stroke-width="0.900025" stroke-miterlimit="10"/>
<path d="M21.8 9.39978C20.4192 9.39978 19.3001 10.5189 19.3001 11.8997C19.3001 13.2804 20.4192 14.3995 21.8 14.3995C23.1807 14.3995 24.2999 13.2804 24.2999 11.8997C24.2999 10.5189 23.1807 9.39978 21.8 9.39978Z" stroke="black" stroke-width="0.749963" stroke-miterlimit="10"/>
</svg>
