<svg width="21" height="21" viewBox="0 0 21 21" fill="none" xmlns="http://www.w3.org/2000/svg">
<path d="M16.2 14.65L18.42 5.64999H6.83998L6.23998 2.64999H2.41998V4.64999H4.59998L6.59998 14.65H16.2ZM15.86 7.64999L14.63 12.65H8.22998L7.22998 7.64999H15.86Z" fill="#1D2128"/>
<path d="M16.42 17.15C16.42 17.9781 15.7481 18.65 14.92 18.65C14.0919 18.65 13.42 17.9781 13.42 17.15C13.42 16.3219 14.0919 15.65 14.92 15.65C15.7481 15.65 16.42 16.3219 16.42 17.15Z" fill="#1D2128"/>
<path d="M9.41998 17.15C9.41998 17.9781 8.74811 18.65 7.91998 18.65C7.09186 18.65 6.41998 17.9781 6.41998 17.15C6.41998 16.3219 7.09186 15.65 7.91998 15.65C8.74811 15.65 9.41998 16.3219 9.41998 17.15Z" fill="#1D2128"/>
</svg>
