<svg width="29" height="29" viewBox="0 0 29 29" fill="none" xmlns="http://www.w3.org/2000/svg">
<path d="M20.7999 26.8002H8.8001C7.97235 26.8002 7.30035 26.1282 7.30035 25.3005V3.30035C7.30035 2.4726 7.97235 1.8006 8.8001 1.8006H20.7999C21.6276 1.8006 22.2996 2.4726 22.2996 3.30035V25.3005C22.2996 26.1282 21.6276 26.8002 20.7999 26.8002Z" stroke="black" stroke-width="0.900025" stroke-miterlimit="10"/>
<path d="M23.2997 6.80038V9.80075C23.2997 10.0764 23.0757 10.3004 22.8001 10.3004C22.5245 10.3004 22.3005 10.0764 22.3005 9.80075V6.80038C22.3005 6.52475 22.5245 6.30075 22.8001 6.30075C23.0757 6.30075 23.2997 6.52475 23.2997 6.80038Z" fill="#7C818B"/>
<path d="M7.30034 6.80038V7.8005C7.30034 8.07613 7.07634 8.30013 6.80071 8.30013C6.52509 8.30013 6.30109 8.07613 6.30109 7.8005V6.80038C6.30109 6.52475 6.52509 6.30075 6.80071 6.30075C7.07634 6.30075 7.30034 6.52475 7.30034 6.80038Z" fill="#7C818B"/>
<path d="M7.30034 9.79986V10.8C7.30034 11.0756 7.07634 11.2996 6.80071 11.2996C6.52509 11.2996 6.30109 11.0756 6.30109 10.8V9.79986C6.30109 9.52423 6.52509 9.30023 6.80071 9.30023C7.07634 9.30023 7.30034 9.52423 7.30034 9.79986Z" fill="#7C818B"/>
<path d="M16.8002 3.30036H12.8006C12.2485 3.30036 11.8005 2.85236 11.8005 2.30023C11.8005 1.74811 12.2485 1.30011 12.8006 1.30011H16.8002C17.3524 1.30011 17.8004 1.74811 17.8004 2.30023C17.8004 2.85236 17.3524 3.30036 16.8002 3.30036Z" fill="#7C818B"/>
</svg>
