<svg width="29" height="29" viewBox="0 0 29 29" fill="none" xmlns="http://www.w3.org/2000/svg">
<path d="M24.0103 7.63339C24.0103 7.96414 23.7416 8.23364 23.41 8.23364C23.0784 8.23364 22.8098 7.96502 22.8098 7.63339C22.8098 7.30264 23.0784 7.03314 23.41 7.03314C23.7416 7.03314 24.0103 7.30177 24.0103 7.63339Z" fill="#7C818B"/>
<path d="M21.8 10.3003C20.8629 10.9251 20.3002 11.976 20.3002 13.103V19.4721C20.3002 20.0023 20.0894 20.5107 19.714 20.8861C18.9326 21.6675 17.6674 21.6675 16.886 20.8861C16.5106 20.5107 16.2997 20.0023 16.2997 19.4721V7.81447C16.2997 5.03635 18.3096 2.58635 21.0247 2.3256C23.207 2.11472 25.146 3.2706 26.1146 5.05035C26.532 5.8151 26.1137 6.69622 26.1137 7.63335C26.1137 8.57047 26.532 9.4516 26.1146 10.2163C25.2212 11.8561 23.5054 12.9665 21.534 12.9665L20.4 12.9586" stroke="black" stroke-width="0.891712" stroke-miterlimit="10" stroke-linecap="round"/>
<path d="M18.8723 7.63337C18.8723 6.16074 20.0666 4.96637 21.5393 4.96637" stroke="black" stroke-width="0.900025" stroke-miterlimit="10" stroke-linecap="round"/>
<path d="M5.58972 12.6331C5.58972 12.9638 5.85835 13.2333 6.18997 13.2333C6.5216 13.2333 6.79022 12.9647 6.79022 12.6331C6.79022 12.3023 6.5216 12.0328 6.18997 12.0328C5.85835 12.0328 5.58972 12.3015 5.58972 12.6331Z" fill="#7C818B"/>
<path d="M7.80001 15.3001C8.73713 15.9249 9.29976 16.9757 9.29976 18.1027V24.4719C9.29976 25.0021 9.51063 25.5105 9.88601 25.8859C10.6674 26.6672 11.9326 26.6672 12.714 25.8859C13.0894 25.5105 13.3003 25.0021 13.3003 24.4719V12.8142C13.3003 10.0361 11.2904 7.5861 8.57526 7.32535C6.39301 7.11448 4.45401 8.27035 3.48538 10.0501C3.06801 10.8149 3.48626 11.696 3.48626 12.6331C3.48626 13.5702 3.06801 14.4514 3.48538 15.2161C4.37876 16.8559 6.09463 17.9662 8.06601 17.9662L9.20001 17.9584" stroke="black" stroke-width="0.891712" stroke-miterlimit="10" stroke-linecap="round"/>
<path d="M10.7277 12.6331C10.7277 11.1605 9.53335 9.96613 8.06073 9.96613" stroke="black" stroke-width="0.900025" stroke-miterlimit="10" stroke-linecap="round"/>
</svg>
