<svg viewBox="0 0 32 32">
<path d="M25.056 6.944c-2.416-2.416-5.632-3.744-9.056-3.744s-6.64 1.328-9.056 3.744c-4.24 4.24-4.944 10.88-1.744 15.904v1.552c0 2.432 1.968 4.4 4.4 4.4h1.2c1.76 0 3.2-1.44 3.2-3.2v-6.4c0-1.76-1.44-3.2-3.2-3.2h-1.2c-1.2 0-2.288 0.48-3.088 1.264-0.384-2.88 0.528-5.888 2.704-8.048 1.808-1.824 4.224-2.816 6.784-2.816s4.976 0.992 6.784 2.816c2.176 2.176 3.088 5.184 2.704 8.064-0.784-0.784-1.888-1.28-3.088-1.28h-1.2c-1.76 0-3.2 1.44-3.2 3.2v6.4c0 1.76 1.44 3.2 3.2 3.2h1.2c2.432 0 4.4-1.968 4.4-4.4v-1.552c3.2-5.040 2.512-11.632-1.744-15.904zM8.4 20.4c0-0.656 0.544-1.2 1.2-1.2h1.2v6.4h-1.2c-0.656 0-1.2-0.544-1.2-1.2v-4zM23.6 24.4c0 0.656-0.544 1.2-1.2 1.2h-1.2v-6.4h1.2c0.656 0 1.2 0.544 1.2 1.2v4z"></path>
</svg>