<svg width="29" height="29" viewBox="0 0 29 29" fill="none" xmlns="http://www.w3.org/2000/svg">
<path d="M25.7996 24.6H3.79949C2.97174 24.6 2.29974 23.928 2.29974 23.1002V7.09997C2.29974 6.27222 2.97174 5.60022 3.79949 5.60022H25.7996C26.6274 5.60022 27.2994 6.27222 27.2994 7.09997V23.1002C27.2994 23.928 26.6274 24.6 25.7996 24.6Z" stroke="black" stroke-width="0.900025" stroke-miterlimit="10"/>
<path d="M2.29973 8.59972V11.6001C2.29973 11.8757 2.07573 12.0997 1.8001 12.0997C1.52448 12.0997 1.30048 11.8757 1.30048 11.6001V8.59972C1.30048 8.3241 1.52448 8.1001 1.8001 8.1001C2.07573 8.1001 2.29973 8.3241 2.29973 8.59972Z" fill="#7C818B"/>
<path d="M23.2 4.20026H8.90335C8.5691 4.20026 8.2366 4.16263 7.91022 4.08738L5.8006 3.60001L7.91022 3.11263C8.2366 3.03738 8.5691 2.99976 8.90335 2.99976H23.2C23.5307 2.99976 23.8002 3.26838 23.8002 3.60001C23.8002 3.93163 23.5316 4.20026 23.2 4.20026Z" fill="#7C818B"/>
</svg>
