<svg width="126" height="63" viewBox="0 0 126 63" fill="none" xmlns="http://www.w3.org/2000/svg">
<path d="M1.47516 1.91309H124.55V33.6703H1.47516V1.91309Z" fill="#0000FF"/>
<path d="M30.2574 29.6996H93.7795V61.4568H30.2574V29.6996Z" fill="#00A99D"/>
<path d="M11.9462 24.7888V9.30627H14.9634V21.9103H21.8614V24.7888H11.9462Z" fill="white"/>
<path d="M26.6363 18.6049L29.2767 18.2088C29.892 18.1203 30.0805 17.8127 30.0805 17.4454C30.0805 16.6821 29.494 16.0456 28.2632 16.0456C26.9921 16.0456 26.2979 16.8494 26.2094 17.7915L23.6287 17.2455C23.8075 15.5688 25.3556 13.7133 28.2344 13.7133C31.6382 13.7133 32.9093 15.638 32.9093 17.7915V23.0716C32.9093 23.6369 32.9785 24.4022 33.0381 24.779H30.3786C30.3093 24.4906 30.269 23.9061 30.269 23.4888C29.7228 24.3426 28.7017 25.0867 27.1036 25.0867C24.8114 25.0867 23.4114 23.5388 23.4114 21.8506C23.4306 19.9451 24.8498 18.8741 26.6363 18.6049ZM30.0901 20.4412V19.9643L27.669 20.3316C26.9248 20.4412 26.3383 20.8584 26.3383 21.6814C26.3383 22.3159 26.794 22.9216 27.7382 22.9216C28.9594 22.9312 30.0901 22.3467 30.0901 20.4412Z" fill="white"/>
<path d="M35.8554 24.7887V8.97937H38.7131V15.2208C39.19 14.4575 40.3707 13.7614 41.9688 13.7614C45.1149 13.7614 46.9206 16.1822 46.9206 19.3779C46.9206 22.6333 44.9149 25.0541 41.8592 25.0541C40.3707 25.0541 39.238 24.3984 38.6727 23.487V24.7964H35.8535L35.8554 24.7887ZM41.3553 16.363C39.8957 16.363 38.665 17.434 38.665 19.3991C38.665 21.345 39.8861 22.4564 41.3553 22.4564C42.8438 22.4564 44.0149 21.3642 44.0149 19.3991C44.0245 17.434 42.8438 16.363 41.3553 16.363Z" fill="white"/>
<path d="M59.6781 19.4182C59.6781 22.7139 57.257 25.1155 54.0397 25.1155C50.8225 25.1155 48.4014 22.7139 48.4014 19.4182C48.4014 16.1033 50.8225 13.7209 54.0397 13.7209C57.257 13.7209 59.6781 16.0937 59.6781 19.4182ZM56.7685 19.4182C56.7685 17.3839 55.459 16.361 54.0397 16.361C52.6205 16.361 51.3109 17.3839 51.3109 19.4182C51.3109 21.4237 52.6205 22.4755 54.0397 22.4755C55.459 22.4755 56.7685 21.443 56.7685 19.4182Z" fill="white"/>
<path d="M68.5203 16.9282C68.1934 16.859 67.9049 16.8398 67.6472 16.8398C66.1588 16.8398 64.878 17.5647 64.878 19.8759V24.7887H61.9704V14.0498H64.7896V15.6476C65.4453 14.2286 66.9338 13.9709 67.8472 13.9709C68.0857 13.9709 68.303 13.9902 68.5222 14.0113L68.5203 16.9282Z" fill="white"/>
<path d="M76.1144 24.7888V9.30627H81.6624C86.07 9.30627 89.3046 12.1636 89.3046 17.0571C89.3046 21.9507 86.0488 24.7888 81.6412 24.7888H76.1144ZM81.5335 21.9891C84.0643 21.9891 86.1892 20.4221 86.1892 17.0571C86.1892 13.6922 84.095 12.1059 81.5547 12.1059H79.1336V22.0007H81.5354L81.5335 21.9891Z" fill="white"/>
<path d="M94.268 18.6049L96.9083 18.2088C97.5237 18.1203 97.7121 17.8127 97.7121 17.4454C97.7121 16.6821 97.1256 16.0456 95.8948 16.0456C94.6237 16.0456 93.9295 16.8494 93.841 17.7915L91.2603 17.2455C91.4391 15.5688 92.9872 13.7133 95.866 13.7133C99.2698 13.7133 100.541 15.638 100.541 17.7915V23.0716C100.541 23.6369 100.61 24.4022 100.67 24.779H98.0102C97.941 24.4906 97.9006 23.9061 97.9006 23.4888C97.3544 24.3426 96.3333 25.0867 94.7353 25.0867C92.443 25.0867 91.043 23.5388 91.043 21.8506C91.0526 19.9451 92.4718 18.8741 94.268 18.6049ZM97.7121 20.4412V19.9643L95.291 20.3316C94.5468 20.4412 93.9603 20.8584 93.9603 21.6814C93.9603 22.3159 94.416 22.9216 95.3602 22.9216C96.5814 22.9312 97.7121 22.3467 97.7121 20.4412Z" fill="white"/>
<path d="M103.825 29.0246L106.356 23.4369L101.791 14.0479H105.047L107.904 20.3393L110.545 14.0479H113.641L106.891 29.0227H103.824L103.825 29.0246Z" fill="white"/>
<path d="M49.9994 42.1363C49.8513 41.2826 49.1456 39.9539 47.1802 39.9539C45.7206 39.9539 44.7591 40.8961 44.7591 41.919C44.7591 42.7728 45.3053 43.4477 46.436 43.665L48.5994 44.0822C51.4186 44.6283 52.9263 46.4646 52.9263 48.647C52.9263 51.0293 50.9417 53.4309 47.3379 53.4309C43.2284 53.4309 41.4226 50.7909 41.1842 48.5874L43.9822 47.8432C44.1111 49.3719 45.1841 50.7505 47.3668 50.7505C48.9841 50.7505 49.8783 49.9468 49.8783 48.8546C49.8783 47.9605 49.2033 47.2568 48.0033 47.0183L45.8399 46.5819C43.3688 46.0762 41.7803 44.4879 41.7803 42.1459C41.7803 39.3963 44.2514 37.3024 47.1706 37.3024C50.9225 37.3024 52.3725 39.5751 52.7186 41.321L49.9994 42.1363Z" fill="white"/>
<path d="M57.782 46.9184L60.4223 46.5223C61.0377 46.4338 61.2262 46.1262 61.2262 45.7589C61.2262 44.9956 60.6396 44.3591 59.4089 44.3591C58.1378 44.3591 57.4435 45.1628 57.3551 46.105L54.7743 45.5589C54.9532 43.8822 56.5012 42.0267 59.38 42.0267C62.7838 42.0267 64.055 43.9515 64.055 46.105V51.3947C64.055 51.96 64.1242 52.7253 64.1838 53.1021H61.5242C61.455 52.8137 61.4146 52.2292 61.4146 51.8119C60.8685 52.6657 59.8473 53.4098 58.2493 53.4098C55.957 53.4098 54.557 51.8619 54.557 50.1737C54.5667 48.249 55.9859 47.176 57.782 46.9184ZM61.2262 48.7547V48.2778L58.805 48.6451C58.0608 48.7547 57.4743 49.1719 57.4743 49.9949C57.4743 50.6294 57.9301 51.2351 58.8743 51.2351C60.0954 51.2351 61.2262 50.6486 61.2262 48.7547Z" fill="white"/>
<path d="M66.9915 53.0926V37.2832H69.8991V53.0926H66.9915Z" fill="white"/>
<path d="M82.6239 50.016C82.0778 51.8715 80.3701 53.4194 77.7297 53.4194C74.7817 53.4194 72.1818 51.3062 72.1818 47.674C72.1818 44.2399 74.7125 42.0171 77.4624 42.0171C80.7778 42.0171 82.772 44.1303 82.772 47.5836C82.772 48.0009 82.7316 48.4374 82.7316 48.4777H75.0394C75.1086 49.8968 76.3105 50.9197 77.749 50.9197C79.099 50.9197 79.8432 50.2448 80.1913 49.2815L82.6239 50.016ZM79.9143 46.5011C79.874 45.4301 79.1701 44.3879 77.5124 44.3879C76.0029 44.3879 75.1798 45.5185 75.1106 46.5011H79.9143Z" fill="white"/>
</svg>
