<svg width="29" height="29" viewBox="0 0 29 29" fill="none" xmlns="http://www.w3.org/2000/svg">
<g clip-path="url(#clip0_1_367)">
<path d="M3.29987 22.3996V7.39948C3.29987 6.29436 4.19499 5.39923 5.30012 5.39923H24.2999C25.405 5.39923 26.3001 6.29436 26.3001 7.39948V22.3996" stroke="black" stroke-width="0.900025" stroke-miterlimit="10"/>
<path d="M15.4002 7.89999C15.4002 8.23074 15.1316 8.50024 14.8 8.50024C14.4683 8.50024 14.1997 8.23162 14.1997 7.89999C14.1997 7.56924 14.4683 7.29974 14.8 7.29974C15.1316 7.29974 15.4002 7.56837 15.4002 7.89999Z" fill="#7C818B"/>
<path d="M25.9457 24.6501H3.65337C2.83524 24.6501 2.10024 24.1522 1.79662 23.3927C1.55862 22.7977 1.99699 22.1494 2.63837 22.1494H11.2405C11.6089 22.1494 11.9702 22.2351 12.2992 22.3996C12.6282 22.5632 12.9905 22.6499 13.358 22.6499H16.2402C16.6086 22.6499 16.97 22.5641 17.299 22.3996C17.628 22.236 17.9902 22.1494 18.3577 22.1494H26.9607C27.6021 22.1494 28.0396 22.7977 27.8016 23.3927C27.498 24.1514 26.7639 24.6501 25.9457 24.6501Z" stroke="black" stroke-width="0.749963" stroke-miterlimit="10"/>
</g>
<defs>
<clipPath id="clip0_1_367">
<rect width="28" height="28" fill="white" transform="translate(0.799988 0.899994)"/>
</clipPath>
</defs>
</svg>
