<svg viewBox="0 0 32 32" width="">
<path d="M25.056 3.744c-0.624-0.624-1.632-0.624-2.256 0s-0.624 1.632 0 2.256c3.744 3.744 3.744 9.84 0 13.584-0.624 0.624-0.624 1.632 0 2.256 0.32 0.32 0.72 0.464 1.136 0.464s0.816-0.16 1.136-0.464c4.976-4.976 4.976-13.104-0.016-18.096z"></path>
<path d="M6.4 12.8c0-2.56 0.992-4.976 2.816-6.784 0.624-0.624 0.624-1.632 0-2.256s-1.632-0.624-2.256 0c-2.432 2.4-3.76 5.616-3.76 9.040s1.328 6.64 3.744 9.056c0.32 0.32 0.72 0.464 1.136 0.464s0.816-0.16 1.136-0.464c0.624-0.624 0.624-1.632 0-2.256-1.824-1.824-2.816-4.24-2.816-6.8z"></path>
<path d="M21.664 7.136c-0.624-0.624-1.632-0.624-2.256 0s-0.624 1.632 0 2.256c1.872 1.872 1.872 4.912 0 6.784-0.624 0.624-0.624 1.632 0 2.256 0.32 0.32 0.72 0.464 1.136 0.464s0.816-0.16 1.136-0.464c3.088-3.088 3.088-8.176-0.016-11.296z"></path>
<path d="M12.608 7.136c-0.624-0.624-1.632-0.624-2.256 0-3.12 3.12-3.12 8.192 0 11.312 0.32 0.32 0.72 0.464 1.136 0.464s0.816-0.16 1.136-0.464c0.624-0.624 0.624-1.632 0-2.256-1.872-1.872-1.872-4.912 0-6.784 0.608-0.624 0.608-1.648-0.016-2.272z"></path>
<path d="M16 11.2c-0.88 0-1.6 0.72-1.6 1.6v14.4c0 0.88 0.72 1.6 1.6 1.6s1.6-0.72 1.6-1.6v-14.4c0-0.88-0.72-1.6-1.6-1.6z"></path>
</svg>