<svg width="29" height="29" viewBox="0 0 29 29" fill="none" xmlns="http://www.w3.org/2000/svg">
<path d="M25.3 23.9999H4.29998C3.47223 23.9999 2.80023 23.3279 2.80023 22.5001V19.4998C2.80023 18.672 3.47223 18 4.29998 18H25.3C26.1277 18 26.7997 18.672 26.7997 19.4998V22.5001C26.7997 23.3279 26.1277 23.9999 25.3 23.9999Z" stroke="black" stroke-width="0.900025" stroke-miterlimit="10"/>
<path d="M7.30035 25.9004H10.3007" stroke="black" stroke-width="0.883487" stroke-miterlimit="10" stroke-linecap="round"/>
<path d="M19.3001 25.9004H22.3005" stroke="black" stroke-width="0.883487" stroke-miterlimit="10" stroke-linecap="round"/>
<path d="M13.3002 18H8.30048V16.9999C8.30048 16.4478 8.74848 15.9998 9.3006 15.9998H12.301C12.8531 15.9998 13.3011 16.4478 13.3011 16.9999L13.3002 18Z" stroke="black" stroke-width="0.900025" stroke-miterlimit="10"/>
<path d="M6.79987 21.0004C6.79987 21.5525 6.35187 22.0005 5.79975 22.0005C5.24762 22.0005 4.79962 21.5525 4.79962 21.0004C4.79962 20.4482 5.24762 20.0002 5.79975 20.0002C6.35187 20.0002 6.79987 20.4482 6.79987 21.0004Z" fill="#7C818B"/>
<path d="M24.2998 21.0004C24.2998 21.276 24.0758 21.5 23.8002 21.5C23.5246 21.5 23.3006 21.276 23.3006 21.0004C23.3006 20.7247 23.5246 20.5007 23.8002 20.5007C24.0758 20.5007 24.2998 20.7247 24.2998 21.0004Z" fill="#7C818B"/>
<path d="M22.2996 21.0004C22.2996 21.276 22.0756 21.5 21.8 21.5C21.5244 21.5 21.3004 21.276 21.3004 21.0004C21.3004 20.7247 21.5244 20.5007 21.8 20.5007C22.0756 20.5007 22.2996 20.7247 22.2996 21.0004Z" fill="#7C818B"/>
<path d="M20.3002 21.0004C20.3002 21.276 20.0762 21.5 19.8006 21.5C19.525 21.5 19.301 21.276 19.301 21.0004C19.301 20.7247 19.525 20.5007 19.8006 20.5007C20.0762 20.5007 20.3002 20.7247 20.3002 21.0004Z" fill="#7C818B"/>
<path d="M12.3001 15.9998H9.29974V6.99951C9.29974 6.44739 9.74774 5.99939 10.2999 5.99939C10.852 5.99939 11.3 6.44739 11.3 6.99951V7.91826C11.3 8.96564 11.4689 10.006 11.7996 10.9991C12.1304 11.9923 12.2992 13.0335 12.2992 14.08L12.3001 15.9998Z" stroke="black" stroke-width="0.900025" stroke-miterlimit="10"/>
<path d="M7.82536 9.55974C6.45861 8.19299 6.45861 5.97661 7.82536 4.60986" stroke="black" stroke-width="0.900025" stroke-miterlimit="10" stroke-linecap="round"/>
<path d="M12.7753 4.60986C14.142 5.97661 14.142 8.19299 12.7753 9.55974" stroke="black" stroke-width="0.900025" stroke-miterlimit="10" stroke-linecap="round"/>
<path d="M6.057 11.3272C3.71375 8.98397 3.71375 5.1856 6.057 2.84235" stroke="black" stroke-width="0.900025" stroke-miterlimit="10" stroke-linecap="round"/>
<path d="M14.5427 2.84149C16.886 5.18474 16.886 8.98312 14.5427 11.3264" stroke="black" stroke-width="0.900025" stroke-miterlimit="10" stroke-linecap="round"/>
</svg>
