<svg viewBox="0 0 32 32">
<path d="M26.784 8.944l-8-5.712c-1.664-1.2-3.904-1.2-5.584 0l-8 5.712c-1.248 0.896-2 2.352-2 3.904v11.152c0 2.64 2.16 4.8 4.8 4.8h16c2.64 0 4.8-2.16 4.8-4.8v-11.152c0-1.552-0.752-3.008-2.016-3.904zM25.6 24c0 0.88-0.72 1.6-1.6 1.6h-16c-0.88 0-1.6-0.72-1.6-1.6v-11.152c0-0.512 0.256-1.008 0.672-1.296l8-5.712c0.272-0.208 0.608-0.304 0.928-0.304s0.656 0.096 0.928 0.304l8 5.712c0.416 0.288 0.672 0.784 0.672 1.296v11.152z"></path>
<path d="M8.080 14.48l2.256 2.256c1.52-1.504 3.52-2.336 5.664-2.336 2.128 0 4.144 0.832 5.664 2.336l2.256-2.256c-2.112-2.112-4.928-3.28-7.92-3.28s-5.808 1.168-7.92 3.28z"></path>
<path d="M11.472 17.872l2.256 2.256c1.216-1.216 3.312-1.216 4.528 0l2.256-2.256c-2.4-2.416-6.624-2.416-9.040 0z"></path>
<path d="M14.864 21.264c-0.624 0.624-0.624 1.632 0 2.256s1.632 0.624 2.256 0c0.624-0.624 0.624-1.632 0-2.256-0.608-0.624-1.632-0.624-2.256 0z"></path>
</svg>