<svg width="91" height="49" viewBox="0 0 91 49" fill="none" xmlns="http://www.w3.org/2000/svg">
<g clip-path="url(#clip0_1_528)">
<path d="M6.08047 30.3105C4.85047 30.531 3.81098 30.501 2.96048 30.231C2.10998 29.961 1.38098 29.541 0.780975 28.9815L2.78048 26.601C3.72998 27.4905 4.89097 27.8115 6.27997 27.5715C7.02997 27.441 7.58048 27.192 7.94047 26.8215C8.30048 26.451 8.48047 26.022 8.48047 25.512C8.48047 25.1325 8.37098 24.8325 8.16097 24.612C7.95097 24.3915 7.51147 24.2925 6.86047 24.312L5.48047 24.3825C3.99998 24.453 2.91998 24.2025 2.22998 23.613C1.53998 23.0235 1.19948 22.143 1.19948 20.973C1.19948 20.343 1.31948 19.7535 1.55948 19.1835C1.79948 18.6135 2.13998 18.114 2.58998 17.664C3.03998 17.214 3.57998 16.824 4.22948 16.5045C4.87897 16.185 5.60947 15.954 6.43897 15.804C7.48897 15.6135 8.41897 15.624 9.21847 15.8145C10.018 16.005 10.708 16.374 11.278 16.914L9.25747 19.314C8.92747 18.9945 8.51797 18.744 8.04697 18.5835C7.57597 18.423 6.97747 18.4035 6.25747 18.534C5.57797 18.654 5.06798 18.864 4.73798 19.1535C4.40797 19.4535 4.23848 19.8135 4.23848 20.2335C4.23848 20.7135 4.36898 21.033 4.62848 21.1935C4.88798 21.363 5.30797 21.4335 5.89897 21.423L7.27898 21.4035C8.71898 21.3735 9.78848 21.633 10.4785 22.173C11.1685 22.713 11.518 23.5935 11.518 24.8025C11.518 25.473 11.398 26.103 11.158 26.712C10.918 27.312 10.5685 27.8625 10.108 28.3425C9.64747 28.8225 9.07747 29.232 8.39797 29.5725C7.71847 29.913 6.94747 30.162 6.07748 30.312L6.08047 30.3105Z" fill="#5500D5"/>
<path d="M19.4005 16.4595V27.72L16.36 28.26V16.9995L12.58 17.67V14.97L23.1805 13.0995V15.7995L19.4005 16.4595Z" fill="#5500D5"/>
<path d="M28.1395 12.2205V20.781C28.1395 21.771 28.33 22.4715 28.72 22.8915C29.11 23.3115 29.7505 23.442 30.6595 23.2815C31.57 23.121 32.209 22.761 32.599 22.212C32.989 21.6525 33.1795 20.8815 33.1795 19.902V11.3415L36.139 10.821V19.0605C36.139 20.091 36.0385 20.991 35.8495 21.78C35.6605 22.569 35.3395 23.2395 34.9 23.8095C34.4605 24.369 33.8905 24.8295 33.2005 25.1895C32.5105 25.539 31.66 25.809 30.661 25.989C29.662 26.169 28.8115 26.199 28.1215 26.0895C27.4315 25.98 26.8615 25.719 26.422 25.3095C25.9825 24.9 25.6615 24.339 25.4725 23.619C25.282 22.899 25.183 22.029 25.183 20.9985V12.759L28.1425 12.219L28.1395 12.2205Z" fill="#5500D5"/>
<path d="M39.1405 10.2795L44.401 9.3495C45.3205 9.189 46.1605 9.189 46.921 9.3495C47.6815 9.51 48.331 9.8295 48.8605 10.32C49.39 10.8105 49.81 11.46 50.101 12.2805C50.392 13.101 50.5405 14.091 50.5405 15.2505C50.5405 16.41 50.3905 17.451 50.101 18.381C49.8115 19.3005 49.3915 20.1015 48.8605 20.781C48.331 21.4515 47.68 22.011 46.921 22.431C46.1605 22.8615 45.3205 23.151 44.401 23.3115L39.1405 24.2415V10.281V10.2795ZM44.3995 20.61C45.31 20.4495 46.0195 20.07 46.54 19.47C47.0605 18.87 47.32 18.0105 47.32 16.89V14.73C47.32 13.6095 47.0605 12.84 46.54 12.4305C46.0195 12.021 45.31 11.8905 44.3995 12.051L42.1795 12.441V21.0015L44.3995 20.61Z" fill="#5500D5"/>
<path d="M53.08 21.78V7.81953L62.5795 6.13953V8.83953L56.119 9.97953V12.819L61.6585 11.8395V14.5395L56.119 15.519V18.5385L62.5795 17.3985V20.0985L53.08 21.7785V21.78Z" fill="#5500D5"/>
<path d="M69.4795 12.2895L68.14 9.72904L68.08 9.73954V19.14L65.2195 19.6395V5.67904L68.539 5.09854L72.3595 11.028L73.699 13.5885L73.759 13.578V4.17754L76.6195 3.67804V17.6385L73.3 18.228L69.4795 12.288V12.2895Z" fill="#5500D5"/>
<path d="M85.5205 4.8V16.0605L82.48 16.6005V5.34L78.7 6.0105V3.3105L89.3005 1.44V4.14L85.5205 4.8Z" fill="#5500D5"/>
<path d="M15.04 34.5301L20.3005 33.6001C21.22 33.4396 22.06 33.4396 22.8205 33.6001C23.581 33.7606 24.2305 34.0801 24.76 34.5706C25.2895 35.0611 25.7095 35.7106 26.0005 36.5311C26.29 37.3516 26.44 38.3415 26.44 39.501C26.44 40.6606 26.29 41.7015 26.0005 42.6315C25.711 43.5511 25.291 44.3521 24.76 45.0316C24.229 45.7111 23.5795 46.2511 22.8205 46.6816C22.06 47.1121 21.22 47.4016 20.3005 47.5621L15.04 48.4921V34.5301ZM20.3005 44.8605C21.211 44.7001 21.9205 44.3206 22.441 43.7206C22.9615 43.1206 23.221 42.2611 23.221 41.1406V38.9806C23.221 37.8601 22.9615 37.0906 22.441 36.6811C21.9205 36.2611 21.211 36.1411 20.3005 36.3016L18.0805 36.6916V45.2521L20.3005 44.8621V44.8605Z" fill="#5500D5"/>
<path d="M28.9795 46.0305V32.07L38.479 30.39V33.09L32.0185 34.23V37.0695L37.558 36.09V38.79L32.0185 39.7695V42.789L38.479 41.649V44.349L28.9795 46.0305Z" fill="#5500D5"/>
<path d="M49.72 42.3796L48.7195 39.2401L44.059 40.0606L43.0585 43.5601L39.979 44.1001L44.5795 29.3296L48.34 28.6696L52.8805 41.8291L49.72 42.3796ZM46.42 31.7596L46.3195 31.7791L44.779 37.3486L47.9785 36.7891L46.42 31.7596Z" fill="#5500D5"/>
<path d="M54.82 41.4795V27.519L57.8605 26.979V38.2395L63.181 37.299V39.999L54.82 41.4795Z" fill="#5500D5"/>
<path d="M69.94 39.0495C68.71 39.27 67.6705 39.24 66.82 38.97C65.9695 38.7 65.2405 38.28 64.6405 37.7205L66.64 35.34C67.5895 36.2295 68.7505 36.5505 70.1395 36.3105C70.8895 36.18 71.44 35.931 71.8 35.5605C72.16 35.19 72.34 34.761 72.34 34.26C72.34 33.8805 72.2305 33.5805 72.0205 33.36C71.8105 33.1395 71.371 33.0405 70.72 33.06L69.34 33.12C67.8595 33.1905 66.7795 32.94 66.0895 32.3505C65.3995 31.761 65.059 30.8805 65.059 29.7105C65.059 29.0805 65.179 28.491 65.419 27.921C65.659 27.3615 65.9995 26.8515 66.4495 26.4015C66.8995 25.9515 67.4395 25.5615 68.089 25.242C68.7385 24.9225 69.469 24.6915 70.2985 24.5415C71.3485 24.351 72.2785 24.3615 73.078 24.552C73.8775 24.7425 74.5675 25.1115 75.1375 25.6515L73.117 28.0515C72.787 27.732 72.3775 27.4815 71.9065 27.321C71.4355 27.1605 70.837 27.141 70.117 27.2715C69.4375 27.3915 68.9275 27.6015 68.5975 27.891C68.2675 28.191 68.098 28.551 68.098 28.971C68.098 29.451 68.2285 29.7705 68.488 29.931C68.7475 30.0915 69.1675 30.171 69.7585 30.1605L71.1385 30.141C72.5785 30.111 73.648 30.3705 74.338 30.9105C75.028 31.4505 75.3775 32.3205 75.3775 33.54C75.3775 34.2105 75.2575 34.8405 75.0175 35.4495C74.7775 36.0585 74.428 36.6 73.9675 37.08C73.507 37.56 72.937 37.9695 72.2575 38.31C71.578 38.6505 70.807 38.8995 69.937 39.0495H69.94Z" fill="#5500D5"/>
<path d="M73.1395 45.3105H89.14V48.3105H73.1395V45.3105Z" fill="#5500D5"/>
<path d="M1.13947 1.30951H17.14V4.30951H1.13947V1.30951Z" fill="#5500D5"/>
</g>
<defs>
<clipPath id="clip0_1_528">
<rect width="90" height="48" fill="white" transform="translate(0.039978 0.900024)"/>
</clipPath>
</defs>
</svg>
