<svg width="29" height="29" viewBox="0 0 29 29" fill="none" xmlns="http://www.w3.org/2000/svg">
<path d="M26.3001 21.5996H3.29987C2.74774 21.5996 2.29974 21.1516 2.29974 20.5995V5.59934C2.29974 5.04721 2.74774 4.59921 3.29987 4.59921H26.3001C26.8522 4.59921 27.3002 5.04721 27.3002 5.59934V20.5995C27.3002 21.1516 26.8522 21.5996 26.3001 21.5996Z" stroke="black" stroke-width="0.900025" stroke-miterlimit="10"/>
<path d="M16.55 22.85H13.05C12.6361 22.85 12.3001 22.514 12.3001 22.1001C12.3001 21.6862 12.6361 21.3502 13.05 21.3502H16.55C16.9639 21.3502 17.2999 21.6862 17.2999 22.1001C17.2999 22.514 16.9639 22.85 16.55 22.85Z" fill="#7C818B"/>
<path d="M7.79999 22.1001L5.79974 24.1003" stroke="black" stroke-width="0.900025" stroke-miterlimit="10" stroke-linecap="round"/>
<path d="M7.79999 22.1001L9.80024 24.1003" stroke="black" stroke-width="0.900025" stroke-miterlimit="10" stroke-linecap="round"/>
<path d="M21.8 22.1001L19.7997 24.1003" stroke="black" stroke-width="0.900025" stroke-miterlimit="10" stroke-linecap="round"/>
<path d="M21.8 22.1001L23.8002 24.1003" stroke="black" stroke-width="0.900025" stroke-miterlimit="10" stroke-linecap="round"/>
</svg>
