<svg width="29" height="29" viewBox="0 0 29 29" fill="none" xmlns="http://www.w3.org/2000/svg">
<path d="M21.8 12.0001V11C21.8 10.4479 22.248 9.99988 22.8001 9.99988C23.3522 9.99988 23.8002 10.4479 23.8002 11V12.0001C23.8002 12.5523 23.3522 13.0003 22.8001 13.0003C22.248 13.0003 21.8 12.5523 21.8 12.0001Z" fill="#7C818B"/>
<path d="M22.1001 17.3V15.6996C22.1001 15.3129 22.4133 14.9996 22.8001 14.9996C23.1868 14.9996 23.5001 15.3129 23.5001 15.6996V17.3C23.5001 17.6868 23.1868 18 22.8001 18C22.4133 18 22.1001 17.6868 22.1001 17.3Z" fill="#7C818B"/>
<path d="M19.3001 21.9996H10.2999C8.64262 21.9996 7.2995 20.6565 7.2995 18.9993V9.999C7.2995 8.34175 8.64262 6.99863 10.2999 6.99863H19.3001C20.9574 6.99863 22.3005 8.34175 22.3005 9.999V18.9993C22.3005 20.6565 20.9574 21.9996 19.3001 21.9996Z" stroke="black" stroke-width="0.900025" stroke-miterlimit="10"/>
<path d="M9.29974 7.00036C10.3471 6.12536 10.8704 4.73761 10.8704 3.37874C10.8704 2.85811 11.2291 2.39786 11.7524 2.24736C13.7692 1.91836 15.829 1.91836 17.8467 2.24736C18.37 2.39699 18.7287 2.85724 18.7287 3.37874C18.7287 4.73761 19.2634 6.12536 20.2994 7.00036" stroke="black" stroke-width="0.900025" stroke-miterlimit="10" stroke-linecap="square"/>
<path d="M20.3002 21.9996C19.2336 22.8956 18.7296 24.2624 18.7296 25.6213C18.7296 26.1419 18.3708 26.6021 17.8476 26.7526C15.8307 27.0816 13.771 27.0816 11.7532 26.7526C11.23 26.603 10.8712 26.1428 10.8712 25.6213C10.8712 24.2624 10.3436 22.8956 9.3006 21.9996" stroke="black" stroke-width="0.900025" stroke-miterlimit="10" stroke-linecap="square"/>
<path d="M14.8 9.50024V10.5004" stroke="black" stroke-width="0.900025" stroke-miterlimit="10" stroke-linecap="round"/>
<path d="M14.8 18.4996V19.4998" stroke="black" stroke-width="0.900025" stroke-miterlimit="10" stroke-linecap="round"/>
<path d="M19.7997 14.5H18.7996" stroke="black" stroke-width="0.900025" stroke-miterlimit="10" stroke-linecap="round"/>
<path d="M10.8004 14.5H9.80023" stroke="black" stroke-width="0.900025" stroke-miterlimit="10" stroke-linecap="round"/>
</svg>
