<svg viewBox="0 0 32 32">
<path d="M21.904 8.208l-0.656-3.936c-0.256-1.536-1.6-2.672-3.152-2.672h-4.192c-1.552 0-2.896 1.136-3.152 2.672l-0.656 3.936c-1.216 0.448-2.096 1.616-2.096 2.992v9.6c0 1.376 0.88 2.544 2.096 2.992l0.656 3.936c0.256 1.536 1.6 2.672 3.152 2.672h4.176c1.568 0 2.896-1.136 3.152-2.672l0.656-3.936c1.232-0.448 2.112-1.616 2.112-2.992v-9.6c0-1.376-0.88-2.544-2.096-2.992zM20.8 20.8h-9.6v-9.6h9.6v9.6zM13.904 4.8h4.176l0.528 3.2h-5.232l0.528-3.2zM18.096 27.2h-4.192l-0.528-3.2h5.248l-0.528 3.2z"></path>
</svg>