<svg width="21" height="22" viewBox="0 0 21 22" fill="none" xmlns="http://www.w3.org/2000/svg">
<path d="M14.39 4.64999C15.51 4.64999 16.54 5.34999 16.97 6.37999C17.47 7.57999 17.04 8.96999 15.81 10.2L10.17 15.82L4.52998 10.21C3.28998 8.96999 2.87998 7.61999 3.38998 6.40999C3.81998 5.35999 4.85998 4.65999 5.97998 4.65999C6.91998 4.65999 7.87998 5.12999 8.75998 6.00999L10.17 7.41999L11.58 6.00999C12.48 5.11999 13.45 4.64999 14.39 4.64999ZM14.39 2.64999C13.03 2.64999 11.55 3.21999 10.17 4.58999C8.79998 3.22999 7.32998 2.65999 5.97998 2.65999C1.99998 2.65999 -0.920017 7.59999 3.11998 11.62L10.17 18.65L17.22 11.62C21.28 7.58999 18.38 2.64999 14.39 2.64999Z" fill="#1D2128"/>
</svg>
